<svg width="16" height="12" viewBox="0 0 16 12" fill="none" xmlns="http://www.w3.org/2000/svg">
<g clip-path="url(#clip0_13055_2974)">
<path fill-rule="evenodd" clip-rule="evenodd" d="M0 0H22.8V0.923438H0V0ZM0 1.84688H22.8V2.77031H0V1.84688ZM0 3.69141H22.8V4.61719H0V3.69141ZM0 5.53828H22.8V6.46172H0V5.53828ZM0 7.38516H22.8V8.30859H0V7.38516ZM0 9.22969H22.8V10.1531H0V9.22969ZM0 11.0766H22.8V12H0V11.0766Z" fill="#BD3D44"/>
<path fill-rule="evenodd" clip-rule="evenodd" d="M0 0.923431H22.8V1.84687H0V0.923431ZM0 2.77031H22.8V3.6914H0V2.77031ZM0 4.61484H22.8V5.53828H0V4.61484ZM0 6.46171H22.8V7.38515H0V6.46171ZM0 8.30859H22.8V9.23203H0V8.30859ZM0 10.1531H22.8V11.0766H0V10.1531Z" fill="white"/>
<path fill-rule="evenodd" clip-rule="evenodd" d="M0 0H9.11953V6.46172H0V0Z" fill="#192F5D"/>
<path fill-rule="evenodd" clip-rule="evenodd" d="M0.759399 0.27655L0.843774 0.532019H1.11096L0.895337 0.68905L0.977368 0.946862L0.759399 0.787488L0.543774 0.944519L0.625806 0.68905L0.407837 0.532019H0.679712L0.759399 0.27655ZM2.28049 0.27655L2.36252 0.532019H2.63206L2.41409 0.68905L2.49612 0.946862L2.28049 0.787488L2.06252 0.944519L2.14456 0.68905L1.92893 0.532019H2.19612L2.28049 0.27655ZM3.79924 0.27655L3.88362 0.532019H4.14846L3.93284 0.68905L4.01487 0.946862L3.7969 0.787488L3.58127 0.944519L3.66331 0.68905L3.44534 0.532019H3.71487L3.79924 0.27655ZM5.32034 0.27655L5.40237 0.532019H5.6719L5.45393 0.68905L5.53831 0.946862L5.32034 0.787488L5.10237 0.944519L5.18674 0.68905L4.96877 0.532019H5.23596L5.32034 0.27655ZM6.83909 0.27655L6.92346 0.532019H7.19065L6.97503 0.68905L7.05706 0.946862L6.83909 0.787488L6.62346 0.944519L6.70549 0.68905L6.48987 0.532019H6.75706L6.83909 0.27655ZM8.36018 0.27655L8.44221 0.532019H8.71174L8.49378 0.68905L8.57815 0.946862L8.36018 0.787488L8.14221 0.944519L8.22659 0.68905L8.00862 0.532019H8.27815L8.36018 0.27655ZM1.52112 0.923425L1.60315 1.17889H1.87268L1.65471 1.33592L1.7344 1.59139L1.52346 1.43436L1.30549 1.59139L1.38284 1.33592L1.1719 1.17889H1.43909L1.52112 0.923425ZM3.03987 0.923425L3.12424 1.17889H3.39143L3.17346 1.33592L3.25784 1.59139L3.03987 1.43436L2.8219 1.59139L2.90627 1.33592L2.68831 1.17889H2.95784L3.03987 0.923425ZM4.56096 0.923425L4.64299 1.17889H4.91253L4.69456 1.33592L4.77659 1.59139L4.56096 1.43436L4.34299 1.59139L4.42502 1.33592L4.2094 1.17889H4.47659L4.56096 0.923425ZM6.07971 0.923425L6.16409 1.17889H6.43127L6.21331 1.33592L6.29768 1.59139L6.07971 1.43436L5.86409 1.59139L5.94612 1.33592L5.72815 1.17889H6.00002L6.07971 0.923425ZM7.60081 0.923425L7.68284 1.17889H7.95237L7.7344 1.33592L7.81643 1.59139L7.60081 1.43436L7.38284 1.59139L7.46487 1.33592L7.24924 1.17889H7.51643L7.60081 0.923425ZM0.759399 1.56796L0.843774 1.82811H1.11096L0.895337 1.98514L0.977368 2.24061L0.759399 2.08124L0.543774 2.24061L0.625806 1.9828L0.407837 1.82577H0.679712L0.759399 1.56796ZM2.28049 1.56796L2.36252 1.82577H2.63206L2.41409 1.9828L2.49612 2.23827L2.28049 2.07889L2.06252 2.23827L2.14456 1.98046L1.92893 1.82342H2.19612L2.28049 1.56796ZM3.79924 1.56796L3.88362 1.82577H4.14846L3.93284 1.9828L4.01487 2.23827L3.7969 2.07889L3.58127 2.23827L3.66331 1.98046L3.44534 1.82342H3.71487L3.79924 1.56796ZM5.32034 1.56796L5.40237 1.82577H5.6719L5.45393 1.9828L5.53831 2.23827L5.32034 2.07889L5.10237 2.23827L5.18674 1.98046L4.96877 1.82342H5.23596L5.32034 1.56796ZM6.83909 1.56796L6.92346 1.82577H7.19065L6.97503 1.9828L7.05706 2.23827L6.83909 2.07889L6.62346 2.23827L6.70549 1.98046L6.48987 1.82342H6.75706L6.83909 1.56796ZM8.36018 1.56796L8.44221 1.82577H8.71174L8.49378 1.9828L8.57815 2.23827L8.36018 2.07889L8.14221 2.23827L8.22659 1.98046L8.00862 1.82342H8.27815L8.36018 1.56796ZM1.52112 2.21483L1.60315 2.4703H1.87268L1.65471 2.62733L1.73674 2.88514L1.52112 2.72577L1.30315 2.8828L1.38518 2.62733L1.16956 2.4703H1.43674L1.52112 2.21483ZM3.03987 2.21483L3.12424 2.4703H3.39143L3.17346 2.62733L3.25784 2.88514L3.03987 2.72577L2.8219 2.8828L2.90627 2.62733L2.68831 2.4703H2.95784L3.03987 2.21483ZM4.56096 2.21483L4.64299 2.4703H4.91253L4.69456 2.62733L4.77659 2.88514L4.56096 2.72577L4.34299 2.8828L4.42502 2.62733L4.2094 2.4703H4.47659L4.56096 2.21483ZM6.07971 2.21483L6.16409 2.4703H6.43127L6.21565 2.62733L6.29768 2.88514L6.07971 2.72577L5.86409 2.8828L5.94612 2.62733L5.72815 2.4703H6.00002L6.07971 2.21483ZM7.60081 2.21483L7.68284 2.4703H7.95237L7.7344 2.62733L7.81643 2.88514L7.60081 2.72577L7.38284 2.8828L7.46487 2.62733L7.24924 2.4703H7.51643L7.60081 2.21483ZM0.759399 2.86171L0.843774 3.11717H1.11096L0.895337 3.2742L0.977368 3.53202L0.759399 3.37264L0.543774 3.52967L0.625806 3.2742L0.407837 3.11717H0.679712L0.759399 2.86171ZM2.28049 2.86171L2.36252 3.11717H2.63206L2.41409 3.2742L2.49612 3.52967L2.28049 3.37264L2.06252 3.52967L2.14456 3.2742L1.92893 3.11717H2.19612L2.28049 2.86171ZM3.79924 2.86171L3.88362 3.11717H4.14846L3.93284 3.2742L4.01487 3.53202L3.7969 3.37264L3.58127 3.52967L3.66331 3.2742L3.44534 3.11717H3.71487L3.79924 2.86171ZM5.32034 2.86171L5.40237 3.11717H5.6719L5.45393 3.2742L5.53831 3.53202L5.32034 3.37264L5.10237 3.52967L5.18674 3.2742L4.96877 3.11717H5.23596L5.32034 2.86171ZM6.83909 2.86171L6.92346 3.11717H7.19065L6.97503 3.2742L7.05706 3.53202L6.83909 3.37264L6.62346 3.52967L6.70549 3.2742L6.48987 3.11717H6.75706L6.83909 2.86171ZM8.36018 2.86171L8.44221 3.11717H8.71174L8.49378 3.2742L8.57815 3.53202L8.36018 3.37264L8.14221 3.52967L8.22659 3.2742L8.00862 3.11717H8.27815L8.36018 2.86171ZM1.52112 3.50858L1.60315 3.76405H1.87268L1.65471 3.92108L1.73674 4.17655L1.52112 4.01717L1.30315 4.17655L1.38518 3.91874L1.16956 3.7617H1.43674L1.52112 3.50858ZM3.03987 3.50858L3.12424 3.76405H3.39143L3.17346 3.92108L3.25784 4.17655L3.03987 4.01717L2.8219 4.17655L2.90627 3.91874L2.68831 3.7617H2.95784L3.03987 3.50858ZM4.56096 3.50858L4.64299 3.76405H4.91253L4.69456 3.92108L4.77659 4.17655L4.56096 4.01717L4.34299 4.17655L4.42502 3.91874L4.2094 3.7617H4.47659L4.56096 3.50858ZM6.07971 3.50858L6.16409 3.76405H6.43127L6.21565 3.92108L6.29768 4.17655L6.07971 4.01717L5.86409 4.17655L5.94612 3.91874L5.72815 3.7617H6.00002L6.07971 3.50858ZM7.60081 3.50858L7.68284 3.76405H7.95237L7.7344 3.92108L7.81643 4.17655L7.60081 4.01717L7.38284 4.17655L7.46487 3.91874L7.24924 3.7617H7.51643L7.60081 3.50858ZM0.759399 4.15311L0.843774 4.41092H1.11096L0.895337 4.56795L0.977368 4.82108L0.759399 4.66405L0.543774 4.82108L0.625806 4.56561L0.407837 4.40858H0.679712L0.759399 4.15311ZM2.28049 4.15311L2.36252 4.41092H2.63206L2.41409 4.56795L2.49846 4.82108L2.28049 4.66405L2.06252 4.82108L2.1469 4.56561L1.92893 4.40858H2.19612L2.28049 4.15311ZM3.79924 4.15311L3.88362 4.41092H4.14846L3.93284 4.56795L4.01487 4.82108L3.7969 4.66405L3.58127 4.82108L3.66331 4.56561L3.44534 4.40858H3.71487L3.79924 4.15311ZM5.32034 4.15311L5.40237 4.41092H5.6719L5.45393 4.56795L5.53831 4.82108L5.32034 4.66405L5.10237 4.82108L5.18674 4.56561L4.96877 4.40858H5.23596L5.32034 4.15311ZM6.83909 4.15311L6.92346 4.41092H7.19065L6.97503 4.56795L7.05706 4.82108L6.83909 4.66405L6.62346 4.82108L6.70549 4.56561L6.48987 4.40858H6.75706L6.83909 4.15311ZM8.36018 4.15311L8.44221 4.41092H8.71174L8.49378 4.56795L8.57815 4.82108L8.36018 4.66405L8.14221 4.82108L8.22659 4.56561L8.00862 4.40858H8.27815L8.36018 4.15311ZM1.52112 4.79999L1.60315 5.05545H1.87268L1.65471 5.21248L1.73674 5.4703L1.52112 5.31092L1.30315 5.46795L1.38518 5.21248L1.16956 5.05545H1.43674L1.52112 4.79999ZM3.03987 4.79999L3.12424 5.05545H3.39143L3.17346 5.21248L3.25784 5.4703L3.03987 5.31092L2.8219 5.46795L2.90627 5.21248L2.68831 5.05545H2.95784L3.03987 4.79999ZM4.56096 4.79999L4.64299 5.05545H4.91253L4.69456 5.21248L4.77659 5.4703L4.56096 5.31092L4.34299 5.46795L4.42502 5.21248L4.2094 5.05545H4.47659L4.56096 4.79999ZM6.07971 4.79999L6.16409 5.05545H6.43127L6.21565 5.21248L6.29768 5.4703L6.07971 5.31092L5.86409 5.46795L5.94612 5.21248L5.72815 5.05545H6.00002L6.07971 4.79999ZM7.60081 4.79999L7.68284 5.05545H7.95237L7.7344 5.21248L7.81643 5.4703L7.60081 5.31092L7.38284 5.46795L7.46487 5.21248L7.24924 5.05545H7.51643L7.60081 4.79999ZM0.759399 5.44686L0.843774 5.70233H1.11096L0.895337 5.85936L0.977368 6.11483L0.759399 5.9578L0.543774 6.11483L0.625806 5.85702L0.407837 5.69998H0.679712L0.759399 5.44686ZM2.28049 5.44686L2.36252 5.70233H2.63206L2.41409 5.85936L2.49846 6.11483L2.28049 5.9578L2.06252 6.11483L2.1469 5.85702L1.92893 5.69998H2.19612L2.28049 5.44686ZM3.79924 5.44686L3.88362 5.70233H4.14846L3.93752 5.85936L4.01956 6.11483L3.80159 5.9578L3.58596 6.11483L3.66799 5.85702L3.45002 5.69998H3.71956L3.79924 5.44686ZM5.32034 5.44686L5.40237 5.70233H5.6719L5.45393 5.85936L5.53831 6.11483L5.32034 5.9578L5.10237 6.11483L5.18674 5.85702L4.96877 5.69998H5.23596L5.32034 5.44686ZM6.83909 5.44686L6.92346 5.70233H7.19065L6.97503 5.85936L7.05706 6.11483L6.83909 5.9578L6.62346 6.11483L6.70549 5.85702L6.48987 5.69998H6.75706L6.83909 5.44686ZM8.36018 5.44686L8.44221 5.70233H8.71174L8.49378 5.85936L8.57815 6.11483L8.36018 5.9578L8.14221 6.11483L8.22659 5.85702L8.00862 5.69998H8.27815L8.36018 5.44686Z" fill="white"/>
</g>
<defs>
<clipPath id="clip0_13055_2974">
<rect width="16" height="12" fill="white"/>
</clipPath>
</defs>
</svg>
